<?xml version="1.0" encoding="UTF-8" standalone="no"?>
<!DOCTYPE svg PUBLIC "-//W3C//DTD SVG 1.1//EN"
 "http://www.w3.org/Graphics/SVG/1.1/DTD/svg11.dtd">
<!-- Generated by graphviz version 2.49.0 (0)
 -->
<!-- Title: exp_graph Pages: 1 -->
<svg width="441pt" height="294pt"
 viewBox="0.00 0.00 441.00 294.00" xmlns="http://www.w3.org/2000/svg" xmlns:xlink="http://www.w3.org/1999/xlink">
<g id="graph0" class="graph" transform="scale(1 1) rotate(0) translate(4 290)">
<title>exp_graph</title>
<polygon fill="white" stroke="transparent" points="-4,4 -4,-290 437,-290 437,4 -4,4"/>
<text text-anchor="middle" x="216.5" y="-7.8" font-family="Times,serif" font-size="14.00">Expression Simplification using Graphs, where (a,b,x) ∈ ℝ</text>
<g id="clust1" class="cluster">
<title>cluster_expression1</title>
<polygon fill="lightgrey" stroke="black" points="136,-31 136,-278 297,-278 297,-31 136,-31"/>
<text text-anchor="middle" x="216.5" y="-262.8" font-family="Times,serif" font-size="14.00">1. Initial Expression</text>
</g>
<!-- plus -->
<g id="node1" class="node">
<title>plus</title>
<polygon fill="blue" stroke="black" points="211,-247 167.6,-229 211,-211 254.4,-229 211,-247"/>
<polyline fill="none" stroke="black" points="178.68,-233.6 178.68,-224.4 "/>
<polyline fill="none" stroke="black" points="199.92,-215.6 222.08,-215.6 "/>
<polyline fill="none" stroke="black" points="243.32,-224.4 243.32,-233.6 "/>
<polyline fill="none" stroke="black" points="222.08,-242.4 199.92,-242.4 "/>
<text text-anchor="middle" x="211" y="-225.3" font-family="Times,serif" font-size="14.00">plus</text>
</g>
<!-- times -->
<g id="node2" class="node">
<title>times</title>
<polygon fill="red" stroke="black" points="217,-175 161,-175 161,-119 217,-119 217,-175"/>
<text text-anchor="middle" x="189" y="-143.3" font-family="Times,serif" font-size="14.00">times</text>
</g>
<!-- plus&#45;&gt;times -->
<g id="edge1" class="edge">
<title>plus&#45;&gt;times</title>
<path fill="none" stroke="black" d="M206.76,-212.58C204.57,-204.61 201.79,-194.51 199.09,-184.69"/>
<polygon fill="black" stroke="black" points="202.46,-183.76 196.44,-175.04 195.71,-185.61 202.46,-183.76"/>
</g>
<!-- b -->
<g id="node5" class="node">
<title>b</title>
<ellipse fill="orange" stroke="black" cx="253" cy="-147" rx="18" ry="18"/>
<text text-anchor="middle" x="253" y="-143.3" font-family="Times,serif" font-size="14.00">b</text>
</g>
<!-- plus&#45;&gt;b -->
<g id="edge2" class="edge">
<title>plus&#45;&gt;b</title>
<path fill="none" stroke="black" d="M218.51,-213.7C224.51,-202.27 233.06,-185.99 240.14,-172.49"/>
<polygon fill="black" stroke="black" points="243.43,-173.75 244.98,-163.27 237.24,-170.5 243.43,-173.75"/>
</g>
<!-- x -->
<g id="node3" class="node">
<title>x</title>
<ellipse fill="purple" stroke="black" cx="177" cy="-61" rx="18" ry="18"/>
<ellipse fill="none" stroke="black" cx="177" cy="-61" rx="22" ry="22"/>
<text text-anchor="middle" x="177" y="-57.3" font-family="Times,serif" font-size="14.00">x</text>
</g>
<!-- times&#45;&gt;x -->
<g id="edge4" class="edge">
<title>times&#45;&gt;x</title>
<path fill="none" stroke="black" d="M185.14,-118.96C183.95,-110.64 182.63,-101.42 181.41,-92.86"/>
<polygon fill="black" stroke="black" points="184.86,-92.27 179.98,-82.86 177.93,-93.26 184.86,-92.27"/>
</g>
<!-- a -->
<g id="node4" class="node">
<title>a</title>
<ellipse fill="orange" stroke="black" cx="235" cy="-61" rx="18" ry="18"/>
<text text-anchor="middle" x="235" y="-57.3" font-family="Times,serif" font-size="14.00">a</text>
</g>
<!-- times&#45;&gt;a -->
<g id="edge3" class="edge">
<title>times&#45;&gt;a</title>
<path fill="none" stroke="black" d="M203.81,-118.96C209.6,-108.38 216.19,-96.35 221.81,-86.08"/>
<polygon fill="black" stroke="black" points="224.92,-87.69 226.66,-77.24 218.78,-84.33 224.92,-87.69"/>
</g>
</g>
</svg>
