<?xml version="1.0" encoding="UTF-8" standalone="no"?>
<!DOCTYPE svg PUBLIC "-//W3C//DTD SVG 1.1//EN"
 "http://www.w3.org/Graphics/SVG/1.1/DTD/svg11.dtd">
<!-- Generated by graphviz version 2.49.0 (0)
 -->
<!-- Title: exp_graph Pages: 1 -->
<svg width="441pt" height="297pt"
 viewBox="0.00 0.00 441.00 297.00" xmlns="http://www.w3.org/2000/svg" xmlns:xlink="http://www.w3.org/1999/xlink">
<g id="graph0" class="graph" transform="scale(1 1) rotate(0) translate(4 293)">
<title>exp_graph</title>
<polygon fill="white" stroke="transparent" points="-4,4 -4,-293 437,-293 437,4 -4,4"/>
<text text-anchor="middle" x="216.5" y="-7.8" font-family="Times,serif" font-size="14.00">Expression Simplification using Graphs, where (a,b,x) ∈ ℝ</text>
<g id="clust1" class="cluster">
<title>cluster_expression1_5</title>
<polygon fill="lightgrey" stroke="black" points="114,-31 114,-281 319,-281 319,-31 114,-31"/>
<text text-anchor="middle" x="216.5" y="-265.8" font-family="Times,serif" font-size="14.00">2. Insertion Site Identified</text>
</g>
<!-- plus15 -->
<g id="node1" class="node">
<title>plus15</title>
<polygon fill="blue" stroke="black" points="189,-250 145.6,-232 189,-214 232.4,-232 189,-250"/>
<polyline fill="none" stroke="black" points="156.68,-236.59 156.68,-227.4 "/>
<polyline fill="none" stroke="black" points="177.92,-218.59 200.08,-218.59 "/>
<polyline fill="none" stroke="black" points="221.32,-227.4 221.32,-236.59 "/>
<polyline fill="none" stroke="black" points="200.08,-245.4 177.92,-245.4 "/>
<text text-anchor="middle" x="189" y="-228.3" font-family="Times,serif" font-size="14.00">plus</text>
</g>
<!-- times15 -->
<g id="node2" class="node">
<title>times15</title>
<polygon fill="red" stroke="black" points="197,-178 141,-178 141,-122 197,-122 197,-178"/>
<text text-anchor="middle" x="169" y="-146.3" font-family="Times,serif" font-size="14.00">times</text>
</g>
<!-- plus15&#45;&gt;times15 -->
<g id="edge1" class="edge">
<title>plus15&#45;&gt;times15</title>
<path fill="none" stroke="black" d="M185.14,-215.57C183.17,-207.69 180.68,-197.72 178.25,-187.99"/>
<polygon fill="black" stroke="black" points="181.58,-186.89 175.76,-178.04 174.79,-188.59 181.58,-186.89"/>
</g>
<!-- b15 -->
<g id="node5" class="node">
<title>b15</title>
<ellipse fill="orange" stroke="black" cx="233" cy="-150" rx="18" ry="18"/>
<text text-anchor="middle" x="233" y="-146.3" font-family="Times,serif" font-size="14.00">b</text>
</g>
<!-- plus15&#45;&gt;b15 -->
<g id="edge2" class="edge">
<title>plus15&#45;&gt;b15</title>
<path fill="none" stroke="black" d="M196.66,-217.06C203.03,-205.5 212.22,-188.78 219.77,-175.05"/>
<polygon fill="black" stroke="black" points="222.92,-176.58 224.68,-166.13 216.79,-173.21 222.92,-176.58"/>
</g>
<!-- x15 -->
<g id="node3" class="node">
<title>x15</title>
<ellipse fill="yellow" stroke="black" cx="157" cy="-62.5" rx="19.5" ry="19.5"/>
<ellipse fill="none" stroke="black" cx="157" cy="-62.5" rx="23.5" ry="23.5"/>
<text text-anchor="middle" x="157" y="-58.8" font-family="Times,serif" font-size="14.00">...</text>
</g>
<!-- times15&#45;&gt;x15 -->
<g id="edge4" class="edge">
<title>times15&#45;&gt;x15</title>
<path fill="none" stroke="black" d="M165.2,-121.94C164.04,-113.67 162.75,-104.48 161.55,-95.88"/>
<polygon fill="black" stroke="black" points="164.99,-95.21 160.13,-85.79 158.05,-96.18 164.99,-95.21"/>
</g>
<!-- a15 -->
<g id="node4" class="node">
<title>a15</title>
<ellipse fill="orange" stroke="black" cx="216" cy="-62.5" rx="18" ry="18"/>
<text text-anchor="middle" x="216" y="-58.8" font-family="Times,serif" font-size="14.00">a</text>
</g>
<!-- times15&#45;&gt;a15 -->
<g id="edge3" class="edge">
<title>times15&#45;&gt;a15</title>
<path fill="none" stroke="black" d="M183.87,-121.94C189.94,-110.9 196.91,-98.22 202.8,-87.51"/>
<polygon fill="black" stroke="black" points="205.9,-89.13 207.65,-78.69 199.77,-85.76 205.9,-89.13"/>
</g>
</g>
</svg>
