<?xml version="1.0" encoding="UTF-8" standalone="no"?>
<!DOCTYPE svg PUBLIC "-//W3C//DTD SVG 1.1//EN"
 "http://www.w3.org/Graphics/SVG/1.1/DTD/svg11.dtd">
<!-- Generated by graphviz version 2.49.0 (0)
 -->
<!-- Title: exp_graph Pages: 1 -->
<svg width="441pt" height="469pt"
 viewBox="0.00 0.00 441.00 469.00" xmlns="http://www.w3.org/2000/svg" xmlns:xlink="http://www.w3.org/1999/xlink">
<g id="graph0" class="graph" transform="scale(1 1) rotate(0) translate(4 465)">
<title>exp_graph</title>
<polygon fill="white" stroke="transparent" points="-4,4 -4,-465 437,-465 437,4 -4,4"/>
<text text-anchor="middle" x="216.5" y="-7.8" font-family="Times,serif" font-size="14.00">Expression Simplification using Graphs, where (a,b,x) ∈ ℝ</text>
<g id="clust1" class="cluster">
<title>cluster_expression2</title>
<polygon fill="lightgrey" stroke="black" points="95.5,-31 95.5,-453 337.5,-453 337.5,-31 95.5,-31"/>
<text text-anchor="middle" x="216.5" y="-437.8" font-family="Times,serif" font-size="14.00">3. Self&#45;insert of function &#45; f(f(x))</text>
</g>
<g id="clust2" class="cluster">
<title>cluster_arg</title>
<polygon fill="none" stroke="black" stroke-dasharray="5,2" points="107.5,-39 107.5,-286 281.5,-286 281.5,-39 107.5,-39"/>
<text text-anchor="middle" x="194.5" y="-270.8" font-family="Times,serif" font-size="14.00">Function as argument</text>
</g>
<!-- plus2 -->
<g id="node1" class="node">
<title>plus2</title>
<polygon fill="blue" stroke="black" points="269.5,-422 226.1,-404 269.5,-386 312.9,-404 269.5,-422"/>
<polyline fill="none" stroke="black" points="237.18,-408.6 237.18,-399.4 "/>
<polyline fill="none" stroke="black" points="258.42,-390.6 280.58,-390.6 "/>
<polyline fill="none" stroke="black" points="301.82,-399.4 301.82,-408.6 "/>
<polyline fill="none" stroke="black" points="280.58,-417.4 258.42,-417.4 "/>
<text text-anchor="middle" x="269.5" y="-400.3" font-family="Times,serif" font-size="14.00">plus</text>
</g>
<!-- times2 -->
<g id="node3" class="node">
<title>times2</title>
<polygon fill="red" stroke="black" points="266.5,-350 210.5,-350 210.5,-294 266.5,-294 266.5,-350"/>
<text text-anchor="middle" x="238.5" y="-318.3" font-family="Times,serif" font-size="14.00">times</text>
</g>
<!-- plus2&#45;&gt;times2 -->
<g id="edge1" class="edge">
<title>plus2&#45;&gt;times2</title>
<path fill="none" stroke="black" d="M263.81,-388.33C260.69,-380.26 256.66,-369.86 252.74,-359.74"/>
<polygon fill="black" stroke="black" points="255.92,-358.26 249.04,-350.2 249.39,-360.79 255.92,-358.26"/>
</g>
<!-- b2 -->
<g id="node8" class="node">
<title>b2</title>
<ellipse fill="orange" stroke="black" cx="302.5" cy="-322" rx="18" ry="18"/>
<text text-anchor="middle" x="302.5" y="-318.3" font-family="Times,serif" font-size="14.00">b</text>
</g>
<!-- plus2&#45;&gt;b2 -->
<g id="edge2" class="edge">
<title>plus2&#45;&gt;b2</title>
<path fill="none" stroke="black" d="M275.55,-388.33C280.15,-377.18 286.58,-361.59 292.01,-348.43"/>
<polygon fill="black" stroke="black" points="295.34,-349.53 295.92,-338.95 288.87,-346.86 295.34,-349.53"/>
</g>
<!-- plus2n -->
<g id="node2" class="node">
<title>plus2n</title>
<polygon fill="blue" stroke="black" points="229.5,-255 186.1,-237 229.5,-219 272.9,-237 229.5,-255"/>
<polyline fill="none" stroke="black" points="197.18,-241.6 197.18,-232.4 "/>
<polyline fill="none" stroke="black" points="218.42,-223.6 240.58,-223.6 "/>
<polyline fill="none" stroke="black" points="261.82,-232.4 261.82,-241.6 "/>
<polyline fill="none" stroke="black" points="240.58,-250.4 218.42,-250.4 "/>
<text text-anchor="middle" x="229.5" y="-233.3" font-family="Times,serif" font-size="14.00">plus</text>
</g>
<!-- times2n -->
<g id="node4" class="node">
<title>times2n</title>
<polygon fill="red" stroke="black" points="206.5,-183 150.5,-183 150.5,-127 206.5,-127 206.5,-183"/>
<text text-anchor="middle" x="178.5" y="-151.3" font-family="Times,serif" font-size="14.00">times</text>
</g>
<!-- plus2n&#45;&gt;times2n -->
<g id="edge5" class="edge">
<title>plus2n&#45;&gt;times2n</title>
<path fill="none" stroke="black" d="M220.85,-222.43C215.47,-213.99 208.27,-202.7 201.34,-191.83"/>
<polygon fill="black" stroke="black" points="204.21,-189.82 195.88,-183.27 198.31,-193.58 204.21,-189.82"/>
</g>
<!-- b2n -->
<g id="node9" class="node">
<title>b2n</title>
<ellipse fill="orange" stroke="black" cx="242.5" cy="-155" rx="18" ry="18"/>
<text text-anchor="middle" x="242.5" y="-151.3" font-family="Times,serif" font-size="14.00">b</text>
</g>
<!-- plus2n&#45;&gt;b2n -->
<g id="edge6" class="edge">
<title>plus2n&#45;&gt;b2n</title>
<path fill="none" stroke="black" d="M232.13,-219.81C233.84,-209.29 236.11,-195.31 238.09,-183.12"/>
<polygon fill="black" stroke="black" points="241.59,-183.43 239.74,-172.99 234.68,-182.3 241.59,-183.43"/>
</g>
<!-- times2&#45;&gt;plus2n -->
<g id="edge4" class="edge">
<title>times2&#45;&gt;plus2n</title>
<path fill="none" stroke="black" d="M235.55,-293.82C234.53,-284.34 233.37,-273.72 232.35,-264.32"/>
<polygon fill="black" stroke="black" points="235.83,-263.89 231.27,-254.33 228.87,-264.65 235.83,-263.89"/>
</g>
<!-- a2 -->
<g id="node6" class="node">
<title>a2</title>
<ellipse fill="orange" stroke="black" cx="308.5" cy="-237" rx="18" ry="18"/>
<text text-anchor="middle" x="308.5" y="-233.3" font-family="Times,serif" font-size="14.00">a</text>
</g>
<!-- times2&#45;&gt;a2 -->
<g id="edge3" class="edge">
<title>times2&#45;&gt;a2</title>
<path fill="none" stroke="black" d="M266.59,-300.49C276.13,-293.46 284.63,-287.06 285.5,-286 290.95,-279.38 295.47,-271.25 299.02,-263.58"/>
<polygon fill="black" stroke="black" points="302.3,-264.82 303,-254.25 295.86,-262.08 302.3,-264.82"/>
</g>
<!-- x2n -->
<g id="node5" class="node">
<title>x2n</title>
<ellipse fill="purple" stroke="black" cx="157.5" cy="-69" rx="18" ry="18"/>
<ellipse fill="none" stroke="black" cx="157.5" cy="-69" rx="22" ry="22"/>
<text text-anchor="middle" x="157.5" y="-65.3" font-family="Times,serif" font-size="14.00">x</text>
</g>
<!-- times2n&#45;&gt;x2n -->
<g id="edge8" class="edge">
<title>times2n&#45;&gt;x2n</title>
<path fill="none" stroke="black" d="M171.74,-126.96C169.62,-118.48 167.27,-109.06 165.09,-100.37"/>
<polygon fill="black" stroke="black" points="168.47,-99.45 162.65,-90.59 161.68,-101.14 168.47,-99.45"/>
</g>
<!-- a2n -->
<g id="node7" class="node">
<title>a2n</title>
<ellipse fill="orange" stroke="black" cx="215.5" cy="-69" rx="18" ry="18"/>
<text text-anchor="middle" x="215.5" y="-65.3" font-family="Times,serif" font-size="14.00">a</text>
</g>
<!-- times2n&#45;&gt;a2n -->
<g id="edge7" class="edge">
<title>times2n&#45;&gt;a2n</title>
<path fill="none" stroke="black" d="M190.41,-126.96C194.91,-116.74 200.01,-105.17 204.43,-95.14"/>
<polygon fill="black" stroke="black" points="207.75,-96.29 208.57,-85.72 201.34,-93.46 207.75,-96.29"/>
</g>
</g>
</svg>
