<?xml version="1.0" encoding="UTF-8" standalone="no"?>
<!DOCTYPE svg PUBLIC "-//W3C//DTD SVG 1.1//EN"
 "http://www.w3.org/Graphics/SVG/1.1/DTD/svg11.dtd">
<!-- Generated by graphviz version 2.49.0 (0)
 -->
<!-- Title: exp_graph Pages: 1 -->
<svg width="441pt" height="305pt"
 viewBox="0.00 0.00 441.00 305.00" xmlns="http://www.w3.org/2000/svg" xmlns:xlink="http://www.w3.org/1999/xlink">
<g id="graph0" class="graph" transform="scale(1 1) rotate(0) translate(4 301)">
<title>exp_graph</title>
<polygon fill="white" stroke="transparent" points="-4,4 -4,-301 437,-301 437,4 -4,4"/>
<text text-anchor="middle" x="216.5" y="-7.8" font-family="Times,serif" font-size="14.00">Expression Simplification using Graphs, where (a,b,x) ∈ ℝ</text>
<g id="clust1" class="cluster">
<title>cluster_expression3</title>
<polygon fill="lightgrey" stroke="black" points="45.5,-31 45.5,-289 387.5,-289 387.5,-31 45.5,-31"/>
<text text-anchor="middle" x="216.5" y="-273.8" font-family="Times,serif" font-size="14.00">4. Distribution rule for * over +</text>
</g>
<g id="clust2" class="cluster">
<title>cluster_arg2</title>
<polygon fill="none" stroke="black" stroke-dasharray="5,2" points="53.5,-39 53.5,-214 335.5,-214 335.5,-39 53.5,-39"/>
<text text-anchor="middle" x="194.5" y="-198.8" font-family="Times,serif" font-size="14.00">Expression a(ax+b) becomes axa+ab</text>
</g>
<!-- plus3 -->
<g id="node1" class="node">
<title>plus3</title>
<polygon fill="blue" stroke="black" points="297.5,-258 254.1,-240 297.5,-222 340.9,-240 297.5,-258"/>
<polyline fill="none" stroke="black" points="265.18,-244.6 265.18,-235.4 "/>
<polyline fill="none" stroke="black" points="286.42,-226.6 308.58,-226.6 "/>
<polyline fill="none" stroke="black" points="329.82,-235.4 329.82,-244.6 "/>
<polyline fill="none" stroke="black" points="308.58,-253.4 286.42,-253.4 "/>
<text text-anchor="middle" x="297.5" y="-236.3" font-family="Times,serif" font-size="14.00">plus</text>
</g>
<!-- times3 -->
<g id="node2" class="node">
<title>times3</title>
<polygon fill="red" stroke="black" points="325.5,-183 269.5,-183 269.5,-127 325.5,-127 325.5,-183"/>
<text text-anchor="middle" x="297.5" y="-151.3" font-family="Times,serif" font-size="14.00">times</text>
</g>
<!-- plus3&#45;&gt;times3 -->
<g id="edge1" class="edge">
<title>plus3&#45;&gt;times3</title>
<path fill="none" stroke="black" d="M297.5,-221.8C297.5,-213.56 297.5,-203.33 297.5,-193.42"/>
<polygon fill="black" stroke="black" points="301,-193.3 297.5,-183.3 294,-193.3 301,-193.3"/>
</g>
<!-- times3n -->
<g id="node3" class="node">
<title>times3n</title>
<polygon fill="red" stroke="black" points="251.5,-183 195.5,-183 195.5,-127 251.5,-127 251.5,-183"/>
<text text-anchor="middle" x="223.5" y="-151.3" font-family="Times,serif" font-size="14.00">times</text>
</g>
<!-- plus3&#45;&gt;times3n -->
<g id="edge3" class="edge">
<title>plus3&#45;&gt;times3n</title>
<path fill="none" stroke="black" d="M279.81,-229.13C273.29,-224.98 266.13,-219.78 260.5,-214 254.08,-207.41 248.18,-199.54 243.06,-191.75"/>
<polygon fill="black" stroke="black" points="245.89,-189.68 237.62,-183.06 239.96,-193.4 245.89,-189.68"/>
</g>
<!-- b3 -->
<g id="node6" class="node">
<title>b3</title>
<ellipse fill="orange" stroke="black" cx="361.5" cy="-155" rx="18" ry="18"/>
<text text-anchor="middle" x="361.5" y="-151.3" font-family="Times,serif" font-size="14.00">b</text>
</g>
<!-- plus3&#45;&gt;b3 -->
<g id="edge2" class="edge">
<title>plus3&#45;&gt;b3</title>
<path fill="none" stroke="black" d="M317.91,-230.41C325.52,-226.36 333.72,-220.89 339.5,-214 347.05,-205 352.17,-193.13 355.55,-182.48"/>
<polygon fill="black" stroke="black" points="358.94,-183.34 358.28,-172.77 352.2,-181.45 358.94,-183.34"/>
</g>
<!-- a3n -->
<g id="node5" class="node">
<title>a3n</title>
<ellipse fill="orange" stroke="black" cx="233.5" cy="-69" rx="18" ry="18"/>
<text text-anchor="middle" x="233.5" y="-65.3" font-family="Times,serif" font-size="14.00">a</text>
</g>
<!-- times3&#45;&gt;a3n -->
<g id="edge4" class="edge">
<title>times3&#45;&gt;a3n</title>
<path fill="none" stroke="black" d="M276.9,-126.96C268.25,-115.61 258.32,-102.58 250.14,-91.85"/>
<polygon fill="black" stroke="black" points="252.87,-89.64 244.02,-83.81 247.3,-93.88 252.87,-89.64"/>
</g>
<!-- b3n -->
<g id="node7" class="node">
<title>b3n</title>
<ellipse fill="orange" stroke="black" cx="297.5" cy="-69" rx="18" ry="18"/>
<text text-anchor="middle" x="297.5" y="-65.3" font-family="Times,serif" font-size="14.00">b</text>
</g>
<!-- times3&#45;&gt;b3n -->
<g id="edge5" class="edge">
<title>times3&#45;&gt;b3n</title>
<path fill="none" stroke="black" d="M297.5,-126.96C297.5,-117.48 297.5,-106.83 297.5,-97.33"/>
<polygon fill="black" stroke="black" points="301,-97.21 297.5,-87.21 294,-97.21 301,-97.21"/>
</g>
<!-- x3n -->
<g id="node4" class="node">
<title>x3n</title>
<ellipse fill="purple" stroke="black" cx="175.5" cy="-69" rx="18" ry="18"/>
<ellipse fill="none" stroke="black" cx="175.5" cy="-69" rx="22" ry="22"/>
<text text-anchor="middle" x="175.5" y="-65.3" font-family="Times,serif" font-size="14.00">x</text>
</g>
<!-- times3n&#45;&gt;x3n -->
<g id="edge8" class="edge">
<title>times3n&#45;&gt;x3n</title>
<path fill="none" stroke="black" d="M208.05,-126.96C202.61,-117.44 196.49,-106.73 191.04,-97.2"/>
<polygon fill="black" stroke="black" points="194.07,-95.44 186.07,-88.49 187.99,-98.91 194.07,-95.44"/>
</g>
<!-- times3n&#45;&gt;a3n -->
<g id="edge6" class="edge">
<title>times3n&#45;&gt;a3n</title>
<path fill="none" stroke="black" d="M220.37,-126.96C221,-116.96 222.37,-105.65 224.15,-95.77"/>
<polygon fill="black" stroke="black" points="227.63,-96.22 226.23,-85.72 220.78,-94.81 227.63,-96.22"/>
</g>
<!-- times3n&#45;&gt;a3n -->
<g id="edge7" class="edge">
<title>times3n&#45;&gt;a3n</title>
<path fill="none" stroke="black" d="M233.07,-126.96C234.75,-117.34 236.03,-106.52 236.64,-96.91"/>
<polygon fill="black" stroke="black" points="240.15,-96.84 237.03,-86.71 233.15,-96.57 240.15,-96.84"/>
</g>
</g>
</svg>
