<?xml version="1.0" encoding="UTF-8" standalone="no"?>
<!DOCTYPE svg PUBLIC "-//W3C//DTD SVG 1.1//EN"
 "http://www.w3.org/Graphics/SVG/1.1/DTD/svg11.dtd">
<!-- Generated by graphviz version 2.49.0 (0)
 -->
<!-- Title: exp_graph Pages: 1 -->
<svg width="441pt" height="366pt"
 viewBox="0.00 0.00 441.00 366.00" xmlns="http://www.w3.org/2000/svg" xmlns:xlink="http://www.w3.org/1999/xlink">
<g id="graph0" class="graph" transform="scale(1 1) rotate(0) translate(4 362)">
<title>exp_graph</title>
<polygon fill="white" stroke="transparent" points="-4,4 -4,-362 437,-362 437,4 -4,4"/>
<text text-anchor="middle" x="216.5" y="-7.8" font-family="Times,serif" font-size="14.00">Expression Simplification using Graphs, where (a,b,x) ∈ ℝ</text>
<g id="clust1" class="cluster">
<title>cluster_expression5</title>
<polygon fill="lightgrey" stroke="black" points="91.5,-31 91.5,-350 341.5,-350 341.5,-31 91.5,-31"/>
<text text-anchor="middle" x="216.5" y="-334.8" font-family="Times,serif" font-size="14.00">5. Expression Normalized</text>
</g>
<!-- plus5 -->
<g id="node1" class="node">
<title>plus5</title>
<polygon fill="blue" stroke="black" points="222.5,-319 179.1,-301 222.5,-283 265.9,-301 222.5,-319"/>
<polyline fill="none" stroke="black" points="190.18,-305.6 190.18,-296.4 "/>
<polyline fill="none" stroke="black" points="211.42,-287.6 233.58,-287.6 "/>
<polyline fill="none" stroke="black" points="254.82,-296.4 254.82,-305.6 "/>
<polyline fill="none" stroke="black" points="233.58,-314.4 211.42,-314.4 "/>
<text text-anchor="middle" x="222.5" y="-297.3" font-family="Times,serif" font-size="14.00">plus</text>
</g>
<!-- times5 -->
<g id="node2" class="node">
<title>times5</title>
<polygon fill="red" stroke="black" points="165.5,-247 109.5,-247 109.5,-191 165.5,-191 165.5,-247"/>
<text text-anchor="middle" x="137.5" y="-215.3" font-family="Times,serif" font-size="14.00">times</text>
</g>
<!-- plus5&#45;&gt;times5 -->
<g id="edge1" class="edge">
<title>plus5&#45;&gt;times5</title>
<path fill="none" stroke="black" d="M209.96,-288.2C200.23,-279.04 186.24,-265.87 173.14,-253.55"/>
<polygon fill="black" stroke="black" points="175.26,-250.73 165.58,-246.42 170.46,-255.83 175.26,-250.73"/>
</g>
<!-- times5n -->
<g id="node3" class="node">
<title>times5n</title>
<polygon fill="red" stroke="black" points="250.5,-247 194.5,-247 194.5,-191 250.5,-191 250.5,-247"/>
<text text-anchor="middle" x="222.5" y="-215.3" font-family="Times,serif" font-size="14.00">times</text>
</g>
<!-- plus5&#45;&gt;times5n -->
<g id="edge3" class="edge">
<title>plus5&#45;&gt;times5n</title>
<path fill="none" stroke="black" d="M222.5,-282.64C222.5,-275.18 222.5,-266.14 222.5,-257.29"/>
<polygon fill="black" stroke="black" points="226,-257.08 222.5,-247.08 219,-257.08 226,-257.08"/>
</g>
<!-- b5 -->
<g id="node7" class="node">
<title>b5</title>
<ellipse fill="orange" stroke="black" cx="286.5" cy="-219" rx="18" ry="18"/>
<text text-anchor="middle" x="286.5" y="-215.3" font-family="Times,serif" font-size="14.00">b</text>
</g>
<!-- plus5&#45;&gt;b5 -->
<g id="edge2" class="edge">
<title>plus5&#45;&gt;b5</title>
<path fill="none" stroke="black" d="M232.78,-287.15C242.59,-274.89 257.55,-256.19 269.19,-241.64"/>
<polygon fill="black" stroke="black" points="272.09,-243.62 275.6,-233.62 266.62,-239.25 272.09,-243.62"/>
</g>
<!-- a5n -->
<g id="node6" class="node">
<title>a5n</title>
<ellipse fill="orange" stroke="black" cx="143.5" cy="-57" rx="18" ry="18"/>
<text text-anchor="middle" x="143.5" y="-53.3" font-family="Times,serif" font-size="14.00">a</text>
</g>
<!-- times5&#45;&gt;a5n -->
<g id="edge4" class="edge">
<title>times5&#45;&gt;a5n</title>
<path fill="none" stroke="black" d="M122.57,-190.61C112.67,-168.91 102.81,-137.89 110.5,-111 113.71,-99.79 120.05,-88.63 126.32,-79.47"/>
<polygon fill="black" stroke="black" points="129.17,-81.51 132.21,-71.37 123.5,-77.4 129.17,-81.51"/>
</g>
<!-- b5n -->
<g id="node8" class="node">
<title>b5n</title>
<ellipse fill="orange" stroke="black" cx="137.5" cy="-133" rx="18" ry="18"/>
<text text-anchor="middle" x="137.5" y="-129.3" font-family="Times,serif" font-size="14.00">b</text>
</g>
<!-- times5&#45;&gt;b5n -->
<g id="edge5" class="edge">
<title>times5&#45;&gt;b5n</title>
<path fill="none" stroke="black" d="M137.5,-190.96C137.5,-181.48 137.5,-170.83 137.5,-161.33"/>
<polygon fill="black" stroke="black" points="141,-161.21 137.5,-151.21 134,-161.21 141,-161.21"/>
</g>
<!-- power5 -->
<g id="node4" class="node">
<title>power5</title>
<polygon fill="green" stroke="black" points="271.51,-138.56 222.5,-151 173.49,-138.56 192.21,-118.44 252.79,-118.44 271.51,-138.56"/>
<text text-anchor="middle" x="222.5" y="-129.3" font-family="Times,serif" font-size="14.00">power</text>
</g>
<!-- times5n&#45;&gt;power5 -->
<g id="edge8" class="edge">
<title>times5n&#45;&gt;power5</title>
<path fill="none" stroke="black" d="M222.5,-190.96C222.5,-181.48 222.5,-170.83 222.5,-161.33"/>
<polygon fill="black" stroke="black" points="226,-161.21 222.5,-151.21 219,-161.21 226,-161.21"/>
</g>
<!-- x5n -->
<g id="node5" class="node">
<title>x5n</title>
<ellipse fill="purple" stroke="black" cx="311.5" cy="-133" rx="18" ry="18"/>
<ellipse fill="none" stroke="black" cx="311.5" cy="-133" rx="22" ry="22"/>
<text text-anchor="middle" x="311.5" y="-129.3" font-family="Times,serif" font-size="14.00">x</text>
</g>
<!-- times5n&#45;&gt;x5n -->
<g id="edge9" class="edge">
<title>times5n&#45;&gt;x5n</title>
<path fill="none" stroke="black" d="M250.66,-191.42C262.83,-179.94 276.88,-166.67 288.42,-155.79"/>
<polygon fill="black" stroke="black" points="291.08,-158.09 295.95,-148.68 286.27,-153 291.08,-158.09"/>
</g>
<!-- power5&#45;&gt;a5n -->
<g id="edge6" class="edge">
<title>power5&#45;&gt;a5n</title>
<path fill="none" stroke="black" d="M208.01,-118.43C195.65,-106.85 177.73,-90.07 163.92,-77.13"/>
<polygon fill="black" stroke="black" points="166.02,-74.3 156.33,-70.02 161.24,-79.41 166.02,-74.3"/>
</g>
<!-- num5 -->
<g id="node9" class="node">
<title>num5</title>
<ellipse fill="cyan" stroke="black" cx="222.5" cy="-57" rx="18" ry="18"/>
<text text-anchor="middle" x="222.5" y="-53.3" font-family="Times,serif" font-size="14.00">2</text>
</g>
<!-- power5&#45;&gt;num5 -->
<g id="edge7" class="edge">
<title>power5&#45;&gt;num5</title>
<path fill="none" stroke="black" d="M222.5,-118.43C222.5,-109.19 222.5,-96.66 222.5,-85.39"/>
<polygon fill="black" stroke="black" points="226,-85.13 222.5,-75.13 219,-85.13 226,-85.13"/>
</g>
</g>
</svg>
