<?xml version="1.0" encoding="UTF-8" standalone="no"?>
<!DOCTYPE svg PUBLIC "-//W3C//DTD SVG 1.1//EN"
 "http://www.w3.org/Graphics/SVG/1.1/DTD/svg11.dtd">
<!-- Generated by graphviz version 2.49.0 (0)
 -->
<!-- Title: exp_graph Pages: 1 -->
<svg width="1582pt" height="489pt"
 viewBox="0.00 0.00 1582.00 489.00" xmlns="http://www.w3.org/2000/svg" xmlns:xlink="http://www.w3.org/1999/xlink">
<g id="graph0" class="graph" transform="scale(1 1) rotate(0) translate(4 485)">
<title>exp_graph</title>
<polygon fill="white" stroke="transparent" points="-4,4 -4,-485 1578,-485 1578,4 -4,4"/>
<text text-anchor="middle" x="787" y="-7.8" font-family="Times,serif" font-size="14.00">Expression Simplification using Graphs, where (a,b,x) ∈ ℝ</text>
<g id="clust1" class="cluster">
<title>cluster_expression1</title>
<polygon fill="lightgrey" stroke="black" points="8,-217 8,-473 169,-473 169,-217 8,-217"/>
<text text-anchor="middle" x="88.5" y="-457.8" font-family="Times,serif" font-size="14.00">1. Initial Expression</text>
</g>
<g id="clust2" class="cluster">
<title>cluster_expression1_5</title>
<polygon fill="lightgrey" stroke="black" points="177,-215.5 177,-473 382,-473 382,-215.5 177,-215.5"/>
<text text-anchor="middle" x="279.5" y="-457.8" font-family="Times,serif" font-size="14.00">2. Insertion Site Identified</text>
</g>
<g id="clust3" class="cluster">
<title>cluster_expression2</title>
<polygon fill="lightgrey" stroke="black" points="390,-31 390,-473 632,-473 632,-31 390,-31"/>
<text text-anchor="middle" x="511" y="-457.8" font-family="Times,serif" font-size="14.00">3. Self&#45;insert of function &#45; f(f(x))</text>
</g>
<g id="clust4" class="cluster">
<title>cluster_arg</title>
<polygon fill="none" stroke="black" stroke-dasharray="5,2" points="402,-39 402,-296 576,-296 576,-39 402,-39"/>
<text text-anchor="middle" x="489" y="-280.8" font-family="Times,serif" font-size="14.00">Function as argument</text>
</g>
<g id="clust5" class="cluster">
<title>cluster_expression3</title>
<polygon fill="lightgrey" stroke="black" points="640,-209 640,-473 982,-473 982,-209 640,-209"/>
<text text-anchor="middle" x="811" y="-457.8" font-family="Times,serif" font-size="14.00">4. Distribution rule for * over +</text>
</g>
<g id="clust6" class="cluster">
<title>cluster_arg2</title>
<polygon fill="none" stroke="black" stroke-dasharray="5,2" points="648,-217 648,-398 930,-398 930,-217 648,-217"/>
<text text-anchor="middle" x="789" y="-382.8" font-family="Times,serif" font-size="14.00">Expression a(ax+b) becomes axa+ab</text>
</g>
<g id="clust7" class="cluster">
<title>cluster_expression4</title>
<polygon fill="lightgrey" stroke="black" points="990,-113 990,-473 1308,-473 1308,-113 990,-113"/>
<text text-anchor="middle" x="1149" y="-457.8" font-family="Times,serif" font-size="14.00">5. Simplify a*a to a^2</text>
</g>
<g id="clust8" class="cluster">
<title>cluster_arg3</title>
<polygon fill="none" stroke="black" stroke-dasharray="5,2" points="998,-121 998,-383 1256,-383 1256,-121 998,-121"/>
</g>
<g id="clust9" class="cluster">
<title>cluster_power1</title>
<polygon fill="none" stroke="black" stroke-dasharray="1,5" points="1072,-129 1072,-375 1248,-375 1248,-129 1072,-129"/>
</g>
<g id="clust10" class="cluster">
<title>cluster_expression5</title>
<polygon fill="lightgrey" stroke="black" points="1316,-129 1316,-473 1566,-473 1566,-129 1316,-129"/>
<text text-anchor="middle" x="1441" y="-457.8" font-family="Times,serif" font-size="14.00">5. Expression Normalized</text>
</g>
<!-- plus -->
<g id="node1" class="node">
<title>plus</title>
<polygon fill="blue" stroke="black" points="83,-442 39.6,-424 83,-406 126.4,-424 83,-442"/>
<polyline fill="none" stroke="black" points="50.68,-428.6 50.68,-419.4 "/>
<polyline fill="none" stroke="black" points="71.92,-410.6 94.08,-410.6 "/>
<polyline fill="none" stroke="black" points="115.32,-419.4 115.32,-428.6 "/>
<polyline fill="none" stroke="black" points="94.08,-437.4 71.92,-437.4 "/>
<text text-anchor="middle" x="83" y="-420.3" font-family="Times,serif" font-size="14.00">plus</text>
</g>
<!-- times -->
<g id="node2" class="node">
<title>times</title>
<polygon fill="red" stroke="black" points="89,-367 33,-367 33,-311 89,-311 89,-367"/>
<text text-anchor="middle" x="61" y="-335.3" font-family="Times,serif" font-size="14.00">times</text>
</g>
<!-- plus&#45;&gt;times -->
<g id="edge1" class="edge">
<title>plus&#45;&gt;times</title>
<path fill="none" stroke="black" d="M78.86,-407.39C76.6,-398.85 73.69,-387.87 70.88,-377.27"/>
<polygon fill="black" stroke="black" points="74.18,-376.08 68.24,-367.31 67.42,-377.87 74.18,-376.08"/>
</g>
<!-- b -->
<g id="node5" class="node">
<title>b</title>
<ellipse fill="orange" stroke="black" cx="125" cy="-339" rx="18" ry="18"/>
<text text-anchor="middle" x="125" y="-335.3" font-family="Times,serif" font-size="14.00">b</text>
</g>
<!-- plus&#45;&gt;b -->
<g id="edge2" class="edge">
<title>plus&#45;&gt;b</title>
<path fill="none" stroke="black" d="M91.51,-409.39C93.71,-405.74 96.01,-401.76 98,-398 103.64,-387.37 109.35,-375.35 114.05,-365.01"/>
<polygon fill="black" stroke="black" points="117.32,-366.28 118.22,-355.73 110.93,-363.42 117.32,-366.28"/>
</g>
<!-- x -->
<g id="node3" class="node">
<title>x</title>
<ellipse fill="purple" stroke="black" cx="49" cy="-247" rx="18" ry="18"/>
<ellipse fill="none" stroke="black" cx="49" cy="-247" rx="22" ry="22"/>
<text text-anchor="middle" x="49" y="-243.3" font-family="Times,serif" font-size="14.00">x</text>
</g>
<!-- times&#45;&gt;x -->
<g id="edge4" class="edge">
<title>times&#45;&gt;x</title>
<path fill="none" stroke="black" d="M57.4,-311C56.05,-300.9 54.51,-289.36 53.12,-278.93"/>
<polygon fill="black" stroke="black" points="56.59,-278.43 51.8,-268.98 49.65,-279.35 56.59,-278.43"/>
</g>
<!-- a -->
<g id="node4" class="node">
<title>a</title>
<ellipse fill="orange" stroke="black" cx="107" cy="-247" rx="18" ry="18"/>
<text text-anchor="middle" x="107" y="-243.3" font-family="Times,serif" font-size="14.00">a</text>
</g>
<!-- times&#45;&gt;a -->
<g id="edge3" class="edge">
<title>times&#45;&gt;a</title>
<path fill="none" stroke="black" d="M74.8,-311C81.07,-298.74 88.42,-284.35 94.52,-272.42"/>
<polygon fill="black" stroke="black" points="97.66,-273.97 99.09,-263.47 91.43,-270.78 97.66,-273.97"/>
</g>
<!-- plus15 -->
<g id="node6" class="node">
<title>plus15</title>
<polygon fill="blue" stroke="black" points="252,-442 208.6,-424 252,-406 295.4,-424 252,-442"/>
<polyline fill="none" stroke="black" points="219.68,-428.6 219.68,-419.4 "/>
<polyline fill="none" stroke="black" points="240.92,-410.6 263.08,-410.6 "/>
<polyline fill="none" stroke="black" points="284.32,-419.4 284.32,-428.6 "/>
<polyline fill="none" stroke="black" points="263.08,-437.4 240.92,-437.4 "/>
<text text-anchor="middle" x="252" y="-420.3" font-family="Times,serif" font-size="14.00">plus</text>
</g>
<!-- times15 -->
<g id="node7" class="node">
<title>times15</title>
<polygon fill="red" stroke="black" points="260,-367 204,-367 204,-311 260,-311 260,-367"/>
<text text-anchor="middle" x="232" y="-335.3" font-family="Times,serif" font-size="14.00">times</text>
</g>
<!-- plus15&#45;&gt;times15 -->
<g id="edge5" class="edge">
<title>plus15&#45;&gt;times15</title>
<path fill="none" stroke="black" d="M248.24,-407.39C246.18,-398.85 243.54,-387.87 240.98,-377.27"/>
<polygon fill="black" stroke="black" points="244.33,-376.21 238.58,-367.31 237.52,-377.85 244.33,-376.21"/>
</g>
<!-- b15 -->
<g id="node10" class="node">
<title>b15</title>
<ellipse fill="orange" stroke="black" cx="296" cy="-339" rx="18" ry="18"/>
<text text-anchor="middle" x="296" y="-335.3" font-family="Times,serif" font-size="14.00">b</text>
</g>
<!-- plus15&#45;&gt;b15 -->
<g id="edge6" class="edge">
<title>plus15&#45;&gt;b15</title>
<path fill="none" stroke="black" d="M261.58,-409.76C264.12,-406.03 266.77,-401.93 269,-398 274.94,-387.53 280.69,-375.53 285.35,-365.18"/>
<polygon fill="black" stroke="black" points="288.63,-366.42 289.45,-355.85 282.22,-363.6 288.63,-366.42"/>
</g>
<!-- x15 -->
<g id="node8" class="node">
<title>x15</title>
<ellipse fill="yellow" stroke="black" cx="220" cy="-247" rx="19.5" ry="19.5"/>
<ellipse fill="none" stroke="black" cx="220" cy="-247" rx="23.5" ry="23.5"/>
<text text-anchor="middle" x="220" y="-243.3" font-family="Times,serif" font-size="14.00">...</text>
</g>
<!-- times15&#45;&gt;x15 -->
<g id="edge8" class="edge">
<title>times15&#45;&gt;x15</title>
<path fill="none" stroke="black" d="M228.4,-311C227.12,-301.39 225.66,-290.47 224.33,-280.46"/>
<polygon fill="black" stroke="black" points="227.78,-279.89 222.99,-270.44 220.84,-280.81 227.78,-279.89"/>
</g>
<!-- a15 -->
<g id="node9" class="node">
<title>a15</title>
<ellipse fill="orange" stroke="black" cx="279" cy="-247" rx="18" ry="18"/>
<text text-anchor="middle" x="279" y="-243.3" font-family="Times,serif" font-size="14.00">a</text>
</g>
<!-- times15&#45;&gt;a15 -->
<g id="edge7" class="edge">
<title>times15&#45;&gt;a15</title>
<path fill="none" stroke="black" d="M246.1,-311C252.54,-298.66 260.12,-284.16 266.37,-272.18"/>
<polygon fill="black" stroke="black" points="269.53,-273.69 271.06,-263.21 263.33,-270.45 269.53,-273.69"/>
</g>
<!-- plus2 -->
<g id="node11" class="node">
<title>plus2</title>
<polygon fill="blue" stroke="black" points="564,-442 520.6,-424 564,-406 607.4,-424 564,-442"/>
<polyline fill="none" stroke="black" points="531.68,-428.6 531.68,-419.4 "/>
<polyline fill="none" stroke="black" points="552.92,-410.6 575.08,-410.6 "/>
<polyline fill="none" stroke="black" points="596.32,-419.4 596.32,-428.6 "/>
<polyline fill="none" stroke="black" points="575.08,-437.4 552.92,-437.4 "/>
<text text-anchor="middle" x="564" y="-420.3" font-family="Times,serif" font-size="14.00">plus</text>
</g>
<!-- times2 -->
<g id="node13" class="node">
<title>times2</title>
<polygon fill="red" stroke="black" points="561,-367 505,-367 505,-311 561,-311 561,-367"/>
<text text-anchor="middle" x="533" y="-335.3" font-family="Times,serif" font-size="14.00">times</text>
</g>
<!-- plus2&#45;&gt;times2 -->
<g id="edge9" class="edge">
<title>plus2&#45;&gt;times2</title>
<path fill="none" stroke="black" d="M558.46,-408.16C555.17,-399.36 550.85,-387.79 546.7,-376.68"/>
<polygon fill="black" stroke="black" points="549.91,-375.27 543.13,-367.12 543.35,-377.72 549.91,-375.27"/>
</g>
<!-- b2 -->
<g id="node18" class="node">
<title>b2</title>
<ellipse fill="orange" stroke="black" cx="597" cy="-339" rx="18" ry="18"/>
<text text-anchor="middle" x="597" y="-335.3" font-family="Times,serif" font-size="14.00">b</text>
</g>
<!-- plus2&#45;&gt;b2 -->
<g id="edge10" class="edge">
<title>plus2&#45;&gt;b2</title>
<path fill="none" stroke="black" d="M569.9,-408.16C574.58,-396.38 581.24,-379.63 586.79,-365.68"/>
<polygon fill="black" stroke="black" points="590.15,-366.71 590.59,-356.13 583.64,-364.13 590.15,-366.71"/>
</g>
<!-- plus2n -->
<g id="node12" class="node">
<title>plus2n</title>
<polygon fill="blue" stroke="black" points="524,-265 480.6,-247 524,-229 567.4,-247 524,-265"/>
<polyline fill="none" stroke="black" points="491.68,-251.6 491.68,-242.4 "/>
<polyline fill="none" stroke="black" points="512.92,-233.6 535.08,-233.6 "/>
<polyline fill="none" stroke="black" points="556.32,-242.4 556.32,-251.6 "/>
<polyline fill="none" stroke="black" points="535.08,-260.4 512.92,-260.4 "/>
<text text-anchor="middle" x="524" y="-243.3" font-family="Times,serif" font-size="14.00">plus</text>
</g>
<!-- times2n -->
<g id="node14" class="node">
<title>times2n</title>
<polygon fill="red" stroke="black" points="501,-183 445,-183 445,-127 501,-127 501,-183"/>
<text text-anchor="middle" x="473" y="-151.3" font-family="Times,serif" font-size="14.00">times</text>
</g>
<!-- plus2n&#45;&gt;times2n -->
<g id="edge13" class="edge">
<title>plus2n&#45;&gt;times2n</title>
<path fill="none" stroke="black" d="M516.03,-231.94C509.96,-221.23 501.33,-206 493.39,-191.98"/>
<polygon fill="black" stroke="black" points="496.28,-189.98 488.3,-183 490.19,-193.43 496.28,-189.98"/>
</g>
<!-- b2n -->
<g id="node19" class="node">
<title>b2n</title>
<ellipse fill="orange" stroke="black" cx="537" cy="-155" rx="18" ry="18"/>
<text text-anchor="middle" x="537" y="-151.3" font-family="Times,serif" font-size="14.00">b</text>
</g>
<!-- plus2n&#45;&gt;b2n -->
<g id="edge14" class="edge">
<title>plus2n&#45;&gt;b2n</title>
<path fill="none" stroke="black" d="M526.32,-229.91C528.21,-216.85 530.91,-198.15 533.13,-182.82"/>
<polygon fill="black" stroke="black" points="536.6,-183.26 534.56,-172.87 529.67,-182.26 536.6,-183.26"/>
</g>
<!-- times2&#45;&gt;plus2n -->
<g id="edge12" class="edge">
<title>times2&#45;&gt;plus2n</title>
<path fill="none" stroke="black" d="M530.3,-311C529.15,-299.54 527.82,-286.22 526.68,-274.79"/>
<polygon fill="black" stroke="black" points="530.13,-274.13 525.65,-264.52 523.16,-274.82 530.13,-274.13"/>
</g>
<!-- a2 -->
<g id="node16" class="node">
<title>a2</title>
<ellipse fill="orange" stroke="black" cx="603" cy="-247" rx="18" ry="18"/>
<text text-anchor="middle" x="603" y="-243.3" font-family="Times,serif" font-size="14.00">a</text>
</g>
<!-- times2&#45;&gt;a2 -->
<g id="edge11" class="edge">
<title>times2&#45;&gt;a2</title>
<path fill="none" stroke="black" d="M561.15,-316.11C567.85,-310.06 574.61,-303.17 580,-296 585.07,-289.25 589.45,-281.2 592.99,-273.64"/>
<polygon fill="black" stroke="black" points="596.21,-275.02 597.01,-264.46 589.8,-272.21 596.21,-275.02"/>
</g>
<!-- x2n -->
<g id="node15" class="node">
<title>x2n</title>
<ellipse fill="purple" stroke="black" cx="452" cy="-69" rx="18" ry="18"/>
<ellipse fill="none" stroke="black" cx="452" cy="-69" rx="22" ry="22"/>
<text text-anchor="middle" x="452" y="-65.3" font-family="Times,serif" font-size="14.00">x</text>
</g>
<!-- times2n&#45;&gt;x2n -->
<g id="edge16" class="edge">
<title>times2n&#45;&gt;x2n</title>
<path fill="none" stroke="black" d="M466.24,-126.96C464.12,-118.48 461.77,-109.06 459.59,-100.37"/>
<polygon fill="black" stroke="black" points="462.97,-99.45 457.15,-90.59 456.18,-101.14 462.97,-99.45"/>
</g>
<!-- a2n -->
<g id="node17" class="node">
<title>a2n</title>
<ellipse fill="orange" stroke="black" cx="510" cy="-69" rx="18" ry="18"/>
<text text-anchor="middle" x="510" y="-65.3" font-family="Times,serif" font-size="14.00">a</text>
</g>
<!-- times2n&#45;&gt;a2n -->
<g id="edge15" class="edge">
<title>times2n&#45;&gt;a2n</title>
<path fill="none" stroke="black" d="M484.91,-126.96C489.41,-116.74 494.51,-105.17 498.93,-95.14"/>
<polygon fill="black" stroke="black" points="502.25,-96.29 503.07,-85.72 495.84,-93.46 502.25,-96.29"/>
</g>
<!-- plus3 -->
<g id="node20" class="node">
<title>plus3</title>
<polygon fill="blue" stroke="black" points="892,-442 848.6,-424 892,-406 935.4,-424 892,-442"/>
<polyline fill="none" stroke="black" points="859.68,-428.6 859.68,-419.4 "/>
<polyline fill="none" stroke="black" points="880.92,-410.6 903.08,-410.6 "/>
<polyline fill="none" stroke="black" points="924.32,-419.4 924.32,-428.6 "/>
<polyline fill="none" stroke="black" points="903.08,-437.4 880.92,-437.4 "/>
<text text-anchor="middle" x="892" y="-420.3" font-family="Times,serif" font-size="14.00">plus</text>
</g>
<!-- times3 -->
<g id="node21" class="node">
<title>times3</title>
<polygon fill="red" stroke="black" points="920,-367 864,-367 864,-311 920,-311 920,-367"/>
<text text-anchor="middle" x="892" y="-335.3" font-family="Times,serif" font-size="14.00">times</text>
</g>
<!-- plus3&#45;&gt;times3 -->
<g id="edge17" class="edge">
<title>plus3&#45;&gt;times3</title>
<path fill="none" stroke="black" d="M892,-405.8C892,-397.56 892,-387.33 892,-377.42"/>
<polygon fill="black" stroke="black" points="895.5,-377.3 892,-367.3 888.5,-377.3 895.5,-377.3"/>
</g>
<!-- times3n -->
<g id="node22" class="node">
<title>times3n</title>
<polygon fill="red" stroke="black" points="846,-367 790,-367 790,-311 846,-311 846,-367"/>
<text text-anchor="middle" x="818" y="-335.3" font-family="Times,serif" font-size="14.00">times</text>
</g>
<!-- plus3&#45;&gt;times3n -->
<g id="edge19" class="edge">
<title>plus3&#45;&gt;times3n</title>
<path fill="none" stroke="black" d="M874.31,-413.13C867.79,-408.98 860.63,-403.78 855,-398 848.58,-391.41 842.68,-383.54 837.56,-375.75"/>
<polygon fill="black" stroke="black" points="840.39,-373.68 832.12,-367.06 834.46,-377.4 840.39,-373.68"/>
</g>
<!-- b3 -->
<g id="node25" class="node">
<title>b3</title>
<ellipse fill="orange" stroke="black" cx="956" cy="-339" rx="18" ry="18"/>
<text text-anchor="middle" x="956" y="-335.3" font-family="Times,serif" font-size="14.00">b</text>
</g>
<!-- plus3&#45;&gt;b3 -->
<g id="edge18" class="edge">
<title>plus3&#45;&gt;b3</title>
<path fill="none" stroke="black" d="M912.41,-414.41C920.02,-410.36 928.22,-404.89 934,-398 941.55,-389 946.67,-377.13 950.05,-366.48"/>
<polygon fill="black" stroke="black" points="953.44,-367.34 952.78,-356.77 946.7,-365.45 953.44,-367.34"/>
</g>
<!-- a3n -->
<g id="node24" class="node">
<title>a3n</title>
<ellipse fill="orange" stroke="black" cx="828" cy="-247" rx="18" ry="18"/>
<text text-anchor="middle" x="828" y="-243.3" font-family="Times,serif" font-size="14.00">a</text>
</g>
<!-- times3&#45;&gt;a3n -->
<g id="edge20" class="edge">
<title>times3&#45;&gt;a3n</title>
<path fill="none" stroke="black" d="M872.8,-311C863.61,-298.08 852.74,-282.8 844.01,-270.52"/>
<polygon fill="black" stroke="black" points="846.73,-268.31 838.09,-262.18 841.03,-272.36 846.73,-268.31"/>
</g>
<!-- b3n -->
<g id="node26" class="node">
<title>b3n</title>
<ellipse fill="orange" stroke="black" cx="892" cy="-247" rx="18" ry="18"/>
<text text-anchor="middle" x="892" y="-243.3" font-family="Times,serif" font-size="14.00">b</text>
</g>
<!-- times3&#45;&gt;b3n -->
<g id="edge21" class="edge">
<title>times3&#45;&gt;b3n</title>
<path fill="none" stroke="black" d="M892,-311C892,-299.7 892,-286.58 892,-275.26"/>
<polygon fill="black" stroke="black" points="895.5,-275.06 892,-265.06 888.5,-275.06 895.5,-275.06"/>
</g>
<!-- x3n -->
<g id="node23" class="node">
<title>x3n</title>
<ellipse fill="purple" stroke="black" cx="770" cy="-247" rx="18" ry="18"/>
<ellipse fill="none" stroke="black" cx="770" cy="-247" rx="22" ry="22"/>
<text text-anchor="middle" x="770" y="-243.3" font-family="Times,serif" font-size="14.00">x</text>
</g>
<!-- times3n&#45;&gt;x3n -->
<g id="edge24" class="edge">
<title>times3n&#45;&gt;x3n</title>
<path fill="none" stroke="black" d="M803.6,-311C797.64,-299.83 790.75,-286.9 784.75,-275.67"/>
<polygon fill="black" stroke="black" points="787.77,-273.88 779.98,-266.71 781.59,-277.18 787.77,-273.88"/>
</g>
<!-- times3n&#45;&gt;a3n -->
<g id="edge22" class="edge">
<title>times3n&#45;&gt;a3n</title>
<path fill="none" stroke="black" d="M814.76,-311C815.37,-299.18 816.93,-285.39 818.98,-273.73"/>
<polygon fill="black" stroke="black" points="822.44,-274.22 820.98,-263.73 815.58,-272.85 822.44,-274.22"/>
</g>
<!-- times3n&#45;&gt;a3n -->
<g id="edge23" class="edge">
<title>times3n&#45;&gt;a3n</title>
<path fill="none" stroke="black" d="M827.25,-311C829.18,-299.62 830.65,-286.4 831.24,-275.02"/>
<polygon fill="black" stroke="black" points="834.75,-274.89 831.53,-264.79 827.75,-274.69 834.75,-274.89"/>
</g>
<!-- plus4 -->
<g id="node27" class="node">
<title>plus4</title>
<polygon fill="blue" stroke="black" points="1170,-442 1126.6,-424 1170,-406 1213.4,-424 1170,-442"/>
<polyline fill="none" stroke="black" points="1137.68,-428.6 1137.68,-419.4 "/>
<polyline fill="none" stroke="black" points="1158.92,-410.6 1181.08,-410.6 "/>
<polyline fill="none" stroke="black" points="1202.32,-419.4 1202.32,-428.6 "/>
<polyline fill="none" stroke="black" points="1181.08,-437.4 1158.92,-437.4 "/>
<text text-anchor="middle" x="1170" y="-420.3" font-family="Times,serif" font-size="14.00">plus</text>
</g>
<!-- times4 -->
<g id="node28" class="node">
<title>times4</title>
<polygon fill="red" stroke="black" points="1062,-275 1006,-275 1006,-219 1062,-219 1062,-275"/>
<text text-anchor="middle" x="1034" y="-243.3" font-family="Times,serif" font-size="14.00">times</text>
</g>
<!-- plus4&#45;&gt;times4 -->
<g id="edge25" class="edge">
<title>plus4&#45;&gt;times4</title>
<path fill="none" stroke="black" d="M1129.25,-422.78C1108.27,-420.49 1083.85,-414.13 1068,-398 1038.95,-368.44 1032.63,-319.59 1032.15,-285.7"/>
<polygon fill="black" stroke="black" points="1035.65,-285.28 1032.18,-275.27 1028.65,-285.26 1035.65,-285.28"/>
</g>
<!-- times4n -->
<g id="node29" class="node">
<title>times4n</title>
<polygon fill="red" stroke="black" points="1198,-367 1142,-367 1142,-311 1198,-311 1198,-367"/>
<text text-anchor="middle" x="1170" y="-335.3" font-family="Times,serif" font-size="14.00">times</text>
</g>
<!-- plus4&#45;&gt;times4n -->
<g id="edge27" class="edge">
<title>plus4&#45;&gt;times4n</title>
<path fill="none" stroke="black" d="M1170,-405.8C1170,-397.56 1170,-387.33 1170,-377.42"/>
<polygon fill="black" stroke="black" points="1173.5,-377.3 1170,-367.3 1166.5,-377.3 1173.5,-377.3"/>
</g>
<!-- b4 -->
<g id="node33" class="node">
<title>b4</title>
<ellipse fill="orange" stroke="black" cx="1282" cy="-339" rx="18" ry="18"/>
<text text-anchor="middle" x="1282" y="-335.3" font-family="Times,serif" font-size="14.00">b</text>
</g>
<!-- plus4&#45;&gt;b4 -->
<g id="edge26" class="edge">
<title>plus4&#45;&gt;b4</title>
<path fill="none" stroke="black" d="M1202.01,-419.26C1218.46,-415.95 1237.94,-409.72 1252,-398 1261.97,-389.69 1269.02,-377.22 1273.77,-365.96"/>
<polygon fill="black" stroke="black" points="1277.08,-367.11 1277.37,-356.52 1270.54,-364.62 1277.08,-367.11"/>
</g>
<!-- a4n -->
<g id="node32" class="node">
<title>a4n</title>
<ellipse fill="orange" stroke="black" cx="1098" cy="-155" rx="18" ry="18"/>
<text text-anchor="middle" x="1098" y="-151.3" font-family="Times,serif" font-size="14.00">a</text>
</g>
<!-- times4&#45;&gt;a4n -->
<g id="edge28" class="edge">
<title>times4&#45;&gt;a4n</title>
<path fill="none" stroke="black" d="M1053.2,-219C1062.39,-206.08 1073.26,-190.8 1081.99,-178.52"/>
<polygon fill="black" stroke="black" points="1084.97,-180.36 1087.91,-170.18 1079.27,-176.31 1084.97,-180.36"/>
</g>
<!-- b4n -->
<g id="node34" class="node">
<title>b4n</title>
<ellipse fill="orange" stroke="black" cx="1034" cy="-155" rx="18" ry="18"/>
<text text-anchor="middle" x="1034" y="-151.3" font-family="Times,serif" font-size="14.00">b</text>
</g>
<!-- times4&#45;&gt;b4n -->
<g id="edge29" class="edge">
<title>times4&#45;&gt;b4n</title>
<path fill="none" stroke="black" d="M1034,-219C1034,-207.7 1034,-194.58 1034,-183.26"/>
<polygon fill="black" stroke="black" points="1037.5,-183.06 1034,-173.06 1030.5,-183.06 1037.5,-183.06"/>
</g>
<!-- power1 -->
<g id="node30" class="node">
<title>power1</title>
<polygon fill="green" stroke="black" points="1178.01,-252.56 1129,-265 1079.99,-252.56 1098.71,-232.44 1159.29,-232.44 1178.01,-252.56"/>
<text text-anchor="middle" x="1129" y="-243.3" font-family="Times,serif" font-size="14.00">power</text>
</g>
<!-- times4n&#45;&gt;power1 -->
<g id="edge32" class="edge">
<title>times4n&#45;&gt;power1</title>
<path fill="none" stroke="black" d="M1157.7,-311C1152.17,-298.86 1145.69,-284.64 1140.29,-272.78"/>
<polygon fill="black" stroke="black" points="1143.38,-271.12 1136.05,-263.47 1137.01,-274.02 1143.38,-271.12"/>
</g>
<!-- x4n -->
<g id="node31" class="node">
<title>x4n</title>
<ellipse fill="purple" stroke="black" cx="1218" cy="-247" rx="18" ry="18"/>
<ellipse fill="none" stroke="black" cx="1218" cy="-247" rx="22" ry="22"/>
<text text-anchor="middle" x="1218" y="-243.3" font-family="Times,serif" font-size="14.00">x</text>
</g>
<!-- times4n&#45;&gt;x4n -->
<g id="edge33" class="edge">
<title>times4n&#45;&gt;x4n</title>
<path fill="none" stroke="black" d="M1184.4,-311C1190.36,-299.83 1197.25,-286.9 1203.25,-275.67"/>
<polygon fill="black" stroke="black" points="1206.41,-277.18 1208.02,-266.71 1200.23,-273.88 1206.41,-277.18"/>
</g>
<!-- power1&#45;&gt;a4n -->
<g id="edge30" class="edge">
<title>power1&#45;&gt;a4n</title>
<path fill="none" stroke="black" d="M1124.29,-232.33C1119.69,-218.97 1112.57,-198.31 1106.9,-181.84"/>
<polygon fill="black" stroke="black" points="1110.16,-180.55 1103.59,-172.24 1103.54,-182.83 1110.16,-180.55"/>
</g>
<!-- num -->
<g id="node35" class="node">
<title>num</title>
<ellipse fill="cyan" stroke="black" cx="1152" cy="-155" rx="18" ry="18"/>
<text text-anchor="middle" x="1152" y="-151.3" font-family="Times,serif" font-size="14.00">2</text>
</g>
<!-- power1&#45;&gt;num -->
<g id="edge31" class="edge">
<title>power1&#45;&gt;num</title>
<path fill="none" stroke="black" d="M1132.49,-232.33C1135.85,-219.18 1141.03,-198.94 1145.2,-182.61"/>
<polygon fill="black" stroke="black" points="1148.68,-183.11 1147.77,-172.55 1141.9,-181.38 1148.68,-183.11"/>
</g>
<!-- plus5 -->
<g id="node36" class="node">
<title>plus5</title>
<polygon fill="blue" stroke="black" points="1447,-442 1403.6,-424 1447,-406 1490.4,-424 1447,-442"/>
<polyline fill="none" stroke="black" points="1414.68,-428.6 1414.68,-419.4 "/>
<polyline fill="none" stroke="black" points="1435.92,-410.6 1458.08,-410.6 "/>
<polyline fill="none" stroke="black" points="1479.32,-419.4 1479.32,-428.6 "/>
<polyline fill="none" stroke="black" points="1458.08,-437.4 1435.92,-437.4 "/>
<text text-anchor="middle" x="1447" y="-420.3" font-family="Times,serif" font-size="14.00">plus</text>
</g>
<!-- times5 -->
<g id="node37" class="node">
<title>times5</title>
<polygon fill="red" stroke="black" points="1390,-367 1334,-367 1334,-311 1390,-311 1390,-367"/>
<text text-anchor="middle" x="1362" y="-335.3" font-family="Times,serif" font-size="14.00">times</text>
</g>
<!-- plus5&#45;&gt;times5 -->
<g id="edge34" class="edge">
<title>plus5&#45;&gt;times5</title>
<path fill="none" stroke="black" d="M1430.05,-413C1423.48,-408.76 1416.09,-403.52 1410,-398 1402.38,-391.08 1394.9,-382.93 1388.2,-374.96"/>
<polygon fill="black" stroke="black" points="1390.83,-372.64 1381.79,-367.11 1385.4,-377.07 1390.83,-372.64"/>
</g>
<!-- times5n -->
<g id="node38" class="node">
<title>times5n</title>
<polygon fill="red" stroke="black" points="1475,-367 1419,-367 1419,-311 1475,-311 1475,-367"/>
<text text-anchor="middle" x="1447" y="-335.3" font-family="Times,serif" font-size="14.00">times</text>
</g>
<!-- plus5&#45;&gt;times5n -->
<g id="edge36" class="edge">
<title>plus5&#45;&gt;times5n</title>
<path fill="none" stroke="black" d="M1447,-405.8C1447,-397.56 1447,-387.33 1447,-377.42"/>
<polygon fill="black" stroke="black" points="1450.5,-377.3 1447,-367.3 1443.5,-377.3 1450.5,-377.3"/>
</g>
<!-- b5 -->
<g id="node42" class="node">
<title>b5</title>
<ellipse fill="orange" stroke="black" cx="1511" cy="-339" rx="18" ry="18"/>
<text text-anchor="middle" x="1511" y="-335.3" font-family="Times,serif" font-size="14.00">b</text>
</g>
<!-- plus5&#45;&gt;b5 -->
<g id="edge35" class="edge">
<title>plus5&#45;&gt;b5</title>
<path fill="none" stroke="black" d="M1465.49,-413.28C1471.95,-409.21 1478.87,-404.02 1484,-398 1492,-388.62 1498.14,-376.47 1502.53,-365.71"/>
<polygon fill="black" stroke="black" points="1505.81,-366.94 1506.07,-356.35 1499.26,-364.46 1505.81,-366.94"/>
</g>
<!-- a5n -->
<g id="node41" class="node">
<title>a5n</title>
<ellipse fill="orange" stroke="black" cx="1368" cy="-155" rx="18" ry="18"/>
<text text-anchor="middle" x="1368" y="-151.3" font-family="Times,serif" font-size="14.00">a</text>
</g>
<!-- times5&#45;&gt;a5n -->
<g id="edge37" class="edge">
<title>times5&#45;&gt;a5n</title>
<path fill="none" stroke="black" d="M1341.33,-310.62C1338.73,-305.95 1336.47,-300.99 1335,-296 1324.1,-258.9 1324.37,-246.18 1335,-209 1338.21,-197.79 1344.55,-186.63 1350.82,-177.47"/>
<polygon fill="black" stroke="black" points="1353.67,-179.51 1356.71,-169.37 1348,-175.4 1353.67,-179.51"/>
</g>
<!-- b5n -->
<g id="node43" class="node">
<title>b5n</title>
<ellipse fill="orange" stroke="black" cx="1362" cy="-247" rx="18" ry="18"/>
<text text-anchor="middle" x="1362" y="-243.3" font-family="Times,serif" font-size="14.00">b</text>
</g>
<!-- times5&#45;&gt;b5n -->
<g id="edge38" class="edge">
<title>times5&#45;&gt;b5n</title>
<path fill="none" stroke="black" d="M1362,-311C1362,-299.7 1362,-286.58 1362,-275.26"/>
<polygon fill="black" stroke="black" points="1365.5,-275.06 1362,-265.06 1358.5,-275.06 1365.5,-275.06"/>
</g>
<!-- power5 -->
<g id="node39" class="node">
<title>power5</title>
<polygon fill="green" stroke="black" points="1496.01,-252.56 1447,-265 1397.99,-252.56 1416.71,-232.44 1477.29,-232.44 1496.01,-252.56"/>
<text text-anchor="middle" x="1447" y="-243.3" font-family="Times,serif" font-size="14.00">power</text>
</g>
<!-- times5n&#45;&gt;power5 -->
<g id="edge41" class="edge">
<title>times5n&#45;&gt;power5</title>
<path fill="none" stroke="black" d="M1447,-311C1447,-299.7 1447,-286.58 1447,-275.26"/>
<polygon fill="black" stroke="black" points="1450.5,-275.06 1447,-265.06 1443.5,-275.06 1450.5,-275.06"/>
</g>
<!-- x5n -->
<g id="node40" class="node">
<title>x5n</title>
<ellipse fill="purple" stroke="black" cx="1536" cy="-247" rx="18" ry="18"/>
<ellipse fill="none" stroke="black" cx="1536" cy="-247" rx="22" ry="22"/>
<text text-anchor="middle" x="1536" y="-243.3" font-family="Times,serif" font-size="14.00">x</text>
</g>
<!-- times5n&#45;&gt;x5n -->
<g id="edge42" class="edge">
<title>times5n&#45;&gt;x5n</title>
<path fill="none" stroke="black" d="M1475.26,-317.33C1478.21,-315.19 1481.16,-313.05 1484,-311 1493.3,-304.29 1497.08,-304.3 1505,-296 1510.78,-289.94 1516.12,-282.67 1520.67,-275.63"/>
<polygon fill="black" stroke="black" points="1523.75,-277.31 1526.01,-266.96 1517.79,-273.64 1523.75,-277.31"/>
</g>
<!-- power5&#45;&gt;a5n -->
<g id="edge39" class="edge">
<title>power5&#45;&gt;a5n</title>
<path fill="none" stroke="black" d="M1435,-232.33C1422.09,-217.62 1401.4,-194.06 1386.43,-177"/>
<polygon fill="black" stroke="black" points="1388.82,-174.42 1379.6,-169.21 1383.56,-179.03 1388.82,-174.42"/>
</g>
<!-- num5 -->
<g id="node44" class="node">
<title>num5</title>
<ellipse fill="cyan" stroke="black" cx="1447" cy="-155" rx="18" ry="18"/>
<text text-anchor="middle" x="1447" y="-151.3" font-family="Times,serif" font-size="14.00">2</text>
</g>
<!-- power5&#45;&gt;num5 -->
<g id="edge40" class="edge">
<title>power5&#45;&gt;num5</title>
<path fill="none" stroke="black" d="M1447,-232.33C1447,-219.34 1447,-199.44 1447,-183.21"/>
<polygon fill="black" stroke="black" points="1450.5,-183.19 1447,-173.19 1443.5,-183.19 1450.5,-183.19"/>
</g>
</g>
</svg>
